<svg xmlns="http://www.w3.org/2000/svg" xmlns:xlink="http://www.w3.org/1999/xlink" version="1.1" id="Layer_1" x="0px" y="0px" viewBox="0 0 315 295.0698242" style="enable-background:new 0 0 315 295.0698242;" xml:space="preserve">
      <style type="text/css">.st0{fill:#FFFFFF;} .st1{fill:none;}</style>
    <metadata>
              <sfw>
                      <slices/>
            <sliceSourceBounds bottomLeftOrigin="true" height="295.0698242" width="315" x="-8.021739" y="-368.755127"/>
                  </sfw>
          </metadata>
    <g id="color_index_0" fill="rgba(255, 255, 255, 1)" style="fill: rgb(255, 255, 255);">
              <path d="M187.8684998,0v0.0107005c0.0107574,3.1299238-0.9679718,5.980125-2.7642059,8.1635485H165.29245&#9;&#9;C158.9573669,5.1949196,150.9874725,2.2694211,142.3292084,0H187.8684998z"/>
        <path d="M75.4937439,0C67.244194,2.1618257,59.7152596,5.1303887,53.0036926,8.8840914&#9;&#9;c-2.1725922-0.58078-4.4743118-0.8281384-6.8405609-0.6668434V0H75.4937439z"/>
        <path d="M199.1404419,0v83.4206314h-6.969696c0-12.7884598-4.0225983-25.3187866-11.8526611-35.4075699&#9;&#9;c-16.31633-20.9627037-38.709549-34.8481865-63.8669052-35.160141&#9;&#9;c-20.5002136-0.2365923-49.3468094,5.2487497-59.5001259,34.1706429c-5.098156,14.541626-3.915062,28.5992393,7.1739845,40.8713722&#9;&#9;v52.2293167c-26.4588127-15.1546402-41.7855759-35.3967361-43.216095-62.8128738C18.4673958,30.3631096,52.121788,0,111.6326141,0&#9;&#9;c19.6613159,0,42.8719788,7.0233893,56.0045471,14.1759062C179.6727142,20.7152786,192.2030487,12.8099213,192.1707458,0&#9;&#9;H199.1404419z"/>
        <path d="M114.8700714,17.1551704v263.3622742c-16.0366058-1.2584534-31.6108017-8.9272156-46.4427795-22.8556824&#9;&#9;V35.0417786C80.1509476,20.6830463,99.263649,17.1982346,114.8700714,17.1551704z"/>
        <path d="M315,211.7566986c0,22.9955292-9.3358765,43.8291626-24.4045105,58.9085846&#9;&#9;c-15.0794067,15.068634-35.9022827,24.4045105-58.919281,24.4045105h-76.2358856&#9;&#9;c7.701004-2.0758362,14.8104553-4.8722534,21.2961273-8.2387695l18.7362823-0.0215454&#9;&#9;c39.387085-1.4519958,71.8906403-32.8799591,73.0522003-72.5897064c0.0322876-0.8174438,0.0322876-1.6456451,0.0322876-2.4630737&#9;&#9;c0-9.4971771-1.5811157-18.6286926-4.5066223-27.1148987c-10.9815063-31.9442139-41.6780396-52.9176941-75.4615021-52.9176941&#9;&#9;v-7.6472244c32.3314819,0,59.7044983-25.2864914,60.8231201-57.607132c0.0429993-1.4842758,0.0429993-3.0115585,0-4.5066071&#9;&#9;c-0.9035034-26.534111-20.672348-47.9915962-45.9695282-52.7778625V0h28.2335205&#9;&#9;c17.7360077,0,33.7941589,7.1739836,45.3994446,18.8008118c11.6376038,11.6160622,18.8115845,27.674202,18.8115845,45.3995209&#9;&#9;c0,35.4720306-28.728241,64.2110291-64.1788025,64.2325592c23.0063019,0,43.8184204,9.3358765,58.8978271,24.4045258&#9;&#9;C305.6856689,167.9168243,315,188.7397003,315,211.7566986z"/>
        <path d="M89.056572,295.0697937H47.593647v-8.1742554c4.5711403,0,8.7980957-1.4735107,12.2183762-3.968811&#9;&#9;C69.1801987,288.2722168,78.9463196,292.3271179,89.056572,295.0697937z"/>
        <path d="M119.1723328,161.3451233c60.8665466,12.7269135,67.7250977,51.8023987,66.0395355,72.6219788&#9;&#9;c-1.3941193,17.2197266-20.5109711,51.0569458-65.5555344,51.0569458c-25.9963455,0-47.4215546-15.6817017-63.3613892-33.7296295&#9;&#9;c-9.9812202-11.2934113-12.0785675-27.5236511-5.3993263-41.0434723h-8.8196106L0,295.0698242h9.0132141&#9;&#9;c9.6370411-19.5214844,33.7403984-26.8783264,52.6272736-16.0473938&#9;&#9;c15.2837448,8.7765808,35.4075165,16.0473938,60.0379028,16.0473938c62.3181,0,100.3820648-41.807312,100.511322-86.8301697&#9;&#9;c0.1303558-45.4073639-42.5300903-78.0523376-103.0173798-92.8640747V161.3451233z"/>
          </g>
</svg>